<svg xmlns="http://www.w3.org/2000/svg" shape-rendering="geometricPrecision" text-rendering="geometricPrecision" image-rendering="optimizeQuality" fill-rule="evenodd" clip-rule="evenodd" viewBox="0 0 467 512.13"><path fill="gray" fill-rule="nonzero" d="M424.43 512.13H42.58C19.2 512.13 0 492.93 0 469.57V283.04h467v186.53c0 23.41-19.17 42.56-42.57 42.56z"/><path fill="#fff" d="M47.12 498.51h372.77c18.42 0 33.47-15.28 33.47-33.5V283.04H13.65v181.98c0 18.38 15.04 33.49 33.47 33.49z"/><path fill="#F13B31" d="M42.58 28.46h381.84c23.39 0 42.57 19.17 42.57 42.56v212.05H0V71.02c0-23.37 19.2-42.56 42.58-42.56z"/><path fill="#C72B20" d="M320.35 40.47c8.39 0 16 3.41 21.5 8.91 5.49 5.5 8.9 13.1 8.9 21.5 0 8.38-3.41 15.98-8.9 21.48-5.5 5.52-13.11 8.93-21.5 8.93-8.38 0-15.98-3.41-21.49-8.91-5.51-5.52-8.92-13.12-8.92-21.5 0-8.4 3.41-16 8.9-21.5l.3-.28c5.48-5.33 12.97-8.63 21.21-8.63z"/><path fill="#fff" d="M320.34 46.58c13.42 0 24.3 10.88 24.3 24.29 0 13.43-10.88 24.31-24.3 24.31-13.43 0-24.31-10.88-24.31-24.31 0-13.41 10.88-24.29 24.31-24.29z"/><path fill="#C72B20" d="M133.77 40.47c8.4 0 16 3.41 21.5 8.91s8.91 13.1 8.91 21.5c0 8.38-3.41 15.98-8.91 21.48-5.5 5.52-13.1 8.93-21.5 8.93-8.38 0-15.98-3.41-21.48-8.91-5.52-5.52-8.93-13.12-8.93-21.5 0-8.4 3.41-16 8.91-21.5l.3-.28c5.47-5.33 12.96-8.63 21.2-8.63z"/><path fill="#fff" d="M133.76 46.58c13.42 0 24.3 10.88 24.3 24.29 0 13.43-10.88 24.31-24.3 24.31-13.43 0-24.31-10.88-24.31-24.31 0-13.41 10.88-24.29 24.31-24.29z"/><path fill="#1A1A1A" fill-rule="nonzero" d="M116.4 14.24C116.4 6.38 124.16 0 133.76 0c9.61 0 17.38 6.38 17.38 14.24v54.45c0 7.86-7.77 14.24-17.38 14.24-9.6 0-17.36-6.38-17.36-14.24V14.24zM302.98 14.24c0-7.86 7.76-14.24 17.37-14.24 9.6 0 17.37 6.38 17.37 14.24v54.45c0 7.86-7.77 14.24-17.37 14.24-9.61 0-17.37-6.38-17.37-14.24V14.24z"/><path fill="#C2352C" fill-rule="nonzero" d="M123.24 231.97H91.73l24.19-93.31h46.13l24.19 93.31h-31.5l-3.44-14.78h-24.63l-3.43 14.78zm14.93-64.64l-6.13 26.13h13.74l-5.97-26.13h-1.64zm103.01 42.1h-19.41v22.54h-29.86v-93.31h47.03c21.4 0 32.1 11.5 32.1 34.49 0 12.64-2.79 22-8.36 28.07-2.09 2.29-4.98 4.23-8.66 5.82-3.69 1.59-7.97 2.39-12.84 2.39zm-19.41-46.88v22.99h6.87c3.58 0 6.19-.37 7.83-1.12 1.65-.74 2.47-2.46 2.47-5.15v-10.45c0-2.69-.82-4.4-2.47-5.15-1.64-.75-4.25-1.12-7.83-1.12h-6.87zm139.59 69.42h-32.85l-12.24-27.77h-6.42v27.77h-29.86v-93.31h47.03c21.4 0 32.1 10.9 32.1 32.7 0 14.93-4.63 24.78-13.89 29.56l16.13 31.05zm-51.51-69.42v18.66h6.87c3.58 0 6.2-.37 7.84-1.12 1.64-.74 2.46-2.46 2.46-5.15v-6.12c0-2.69-.82-4.4-2.46-5.15-1.64-.75-4.26-1.12-7.84-1.12h-6.87z"/><path fill="#fff" fill-rule="nonzero" d="M127.86 237.2H96.35l24.19-93.32h46.14l24.19 93.32h-31.51l-3.43-14.78h-24.64l-3.43 14.78zm14.93-64.65l-6.12 26.13h13.73l-5.97-26.13h-1.64zm103.02 42.1H226.4v22.55h-29.86v-93.32h47.03c21.4 0 32.1 11.5 32.1 34.49 0 12.64-2.78 22-8.36 28.07-2.09 2.29-4.98 4.23-8.66 5.82-3.68 1.6-7.96 2.39-12.84 2.39zm-19.41-46.88v22.99h6.87c3.58 0 6.19-.37 7.84-1.12 1.64-.74 2.46-2.46 2.46-5.15v-10.45c0-2.69-.82-4.4-2.46-5.15-1.65-.75-4.26-1.12-7.84-1.12h-6.87zm139.61 69.43h-32.85l-12.25-27.77h-6.42v27.77h-29.86v-93.32h47.03c21.41 0 32.11 10.9 32.11 32.7 0 14.93-4.63 24.78-13.89 29.56l16.13 31.06zm-51.52-69.43v18.66h6.87c3.59 0 6.2-.37 7.84-1.12 1.64-.74 2.46-2.46 2.46-5.15v-6.12c0-2.69-.82-4.4-2.46-5.15-1.64-.75-4.25-1.12-7.84-1.12h-6.87z"/><path fill="gray" fill-rule="nonzero" d="M424.43 512.13H42.58C19.2 512.13 0 492.93 0 469.57V283.04h467v186.53c0 23.41-19.17 42.56-42.57 42.56z"/><path fill="#fff" d="M47.12 498.51h372.77c18.42 0 33.47-15.28 33.47-33.5V283.04H13.65v181.98c0 18.38 15.04 33.49 33.47 33.49z"/><path fill="#F13B31" d="M42.58 28.46h381.84c23.39 0 42.57 19.17 42.57 42.56v212.05H0V71.02c0-23.37 19.2-42.56 42.58-42.56z"/><path fill="#C72B20" d="M320.35 40.47c8.39 0 16 3.41 21.5 8.91 5.49 5.5 8.9 13.1 8.9 21.5 0 8.38-3.41 15.98-8.9 21.48-5.5 5.52-13.11 8.93-21.5 8.93-8.38 0-15.98-3.41-21.49-8.91-5.51-5.52-8.92-13.12-8.92-21.5 0-8.4 3.41-16 8.9-21.5l.3-.28c5.48-5.33 12.97-8.63 21.21-8.63z"/><path fill="#fff" d="M320.34 46.58c13.42 0 24.3 10.88 24.3 24.29 0 13.43-10.88 24.31-24.3 24.31-13.43 0-24.31-10.88-24.31-24.31 0-13.41 10.88-24.29 24.31-24.29z"/><path fill="#C72B20" d="M133.77 40.47c8.4 0 16 3.41 21.5 8.91s8.91 13.1 8.91 21.5c0 8.38-3.41 15.98-8.91 21.48-5.5 5.52-13.1 8.93-21.5 8.93-8.38 0-15.98-3.41-21.48-8.91-5.52-5.52-8.93-13.12-8.93-21.5 0-8.4 3.41-16 8.91-21.5l.3-.28c5.47-5.33 12.96-8.63 21.2-8.63z"/><path fill="#fff" d="M133.76 46.58c13.42 0 24.3 10.88 24.3 24.29 0 13.43-10.88 24.31-24.3 24.31-13.43 0-24.31-10.88-24.31-24.31 0-13.41 10.88-24.29 24.31-24.29z"/><path fill="#1A1A1A" fill-rule="nonzero" d="M116.4 14.24C116.4 6.38 124.16 0 133.76 0c9.61 0 17.38 6.38 17.38 14.24v54.45c0 7.86-7.77 14.24-17.38 14.24-9.6 0-17.36-6.38-17.36-14.24V14.24zM302.98 14.24c0-7.86 7.76-14.24 17.37-14.24 9.6 0 17.37 6.38 17.37 14.24v54.45c0 7.86-7.77 14.24-17.37 14.24-9.61 0-17.37-6.38-17.37-14.24V14.24z"/><path fill="#C2352C" fill-rule="nonzero" d="M123.24 231.97H91.73l24.19-93.31h46.13l24.19 93.31h-31.5l-3.44-14.78h-24.63l-3.43 14.78zm14.93-64.64l-6.13 26.13h13.74l-5.97-26.13h-1.64zm103.01 42.1h-19.41v22.54h-29.86v-93.31h47.03c21.4 0 32.1 11.5 32.1 34.49 0 12.64-2.79 22-8.36 28.07-2.09 2.29-4.98 4.23-8.66 5.82-3.69 1.59-7.97 2.39-12.84 2.39zm-19.41-46.88v22.99h6.87c3.58 0 6.19-.37 7.83-1.12 1.65-.74 2.47-2.46 2.47-5.15v-10.45c0-2.69-.82-4.4-2.47-5.15-1.64-.75-4.25-1.12-7.83-1.12h-6.87zm139.59 69.42h-32.85l-12.24-27.77h-6.42v27.77h-29.86v-93.31h47.03c21.4 0 32.1 10.9 32.1 32.7 0 14.93-4.63 24.78-13.89 29.56l16.13 31.05zm-51.51-69.42v18.66h6.87c3.58 0 6.2-.37 7.84-1.12 1.64-.74 2.46-2.46 2.46-5.15v-6.12c0-2.69-.82-4.4-2.46-5.15-1.64-.75-4.26-1.12-7.84-1.12h-6.87z"/><path fill="#fff" fill-rule="nonzero" d="M127.86 237.2H96.35l24.19-93.32h46.14l24.19 93.32h-31.51l-3.43-14.78h-24.64l-3.43 14.78zm14.93-64.65l-6.12 26.13h13.73l-5.97-26.13h-1.64zm103.02 42.1H226.4v22.55h-29.86v-93.32h47.03c21.4 0 32.1 11.5 32.1 34.49 0 12.64-2.78 22-8.36 28.07-2.09 2.29-4.98 4.23-8.66 5.82-3.68 1.6-7.96 2.39-12.84 2.39zm-19.41-46.88v22.99h6.87c3.58 0 6.19-.37 7.84-1.12 1.64-.74 2.46-2.46 2.46-5.15v-10.45c0-2.69-.82-4.4-2.46-5.15-1.65-.75-4.26-1.12-7.84-1.12h-6.87zm139.61 69.43h-32.85l-12.25-27.77h-6.42v27.77h-29.86v-93.32h47.03c21.41 0 32.11 10.9 32.11 32.7 0 14.93-4.63 24.78-13.89 29.56l16.13 31.06zm-51.52-69.43v18.66h6.87c3.59 0 6.2-.37 7.84-1.12 1.64-.74 2.46-2.46 2.46-5.15v-6.12c0-2.69-.82-4.4-2.46-5.15-1.64-.75-4.25-1.12-7.84-1.12h-6.87z"/><path fill="#1A1A1A" fill-rule="nonzero" d="M144.77 368.15l-4.42-25.36c14.29-4.31 28.53-6.46 42.71-6.46 5.67 0 10.4.17 14.2.51 3.8.34 7.75 1.19 11.83 2.55 4.08 1.36 7.32 3.23 9.7 5.61 5.44 5.45 8.17 13.79 8.17 25.02s-3.18 19.51-9.53 24.84c-6.36 5.33-19.74 11.46-40.16 18.38V418h47.98v27.23h-87.29v-21.27c0-6.36 1.2-12.42 3.58-18.21 1.47-3.29 5.05-7.26 10.72-11.91 3.06-2.61 7.17-5.11 12.33-7.49s10.04-4.62 14.64-6.72c4.59-2.1 8.31-3.83 11.14-5.19v-9.19c-5.1-.56-9.81-.85-14.12-.85-10.44 0-20.93 1.25-31.48 3.75zm102.09 0l-4.42-25.36c14.29-4.31 28.53-6.46 42.71-6.46 5.67 0 10.41.17 14.21.51 3.8.34 7.74 1.19 11.82 2.55 4.09 1.36 7.32 3.23 9.7 5.61 5.45 5.45 8.17 13.79 8.17 25.02s-3.17 19.51-9.53 24.84c-6.35 5.33-19.74 11.46-40.16 18.38V418h47.99v27.23h-87.29v-21.27c0-6.36 1.19-12.42 3.57-18.21 1.48-3.29 5.05-7.26 10.72-11.91 3.06-2.61 7.18-5.11 12.34-7.49s10.04-4.62 14.63-6.72c4.6-2.1 8.31-3.83 11.15-5.19v-9.19c-5.11-.56-9.82-.85-14.13-.85-10.43 0-20.93 1.25-31.48 3.75z"/></svg>