<svg width="32" height="32" viewBox="0 0 32 32" fill="none" xmlns="http://www.w3.org/2000/svg">
<path fill-rule="evenodd" clip-rule="evenodd" d="M22.7071 10.2929C23.0976 10.6834 23.0976 11.3166 22.7071 11.7071L12.7071 21.7071C12.3166 22.0976 11.6834 22.0976 11.2929 21.7071C10.9024 21.3166 10.9024 20.6834 11.2929 20.2929L21.2929 10.2929C21.6834 9.90237 22.3166 9.90237 22.7071 10.2929Z" fill="#001C2F"/>
<path fill-rule="evenodd" clip-rule="evenodd" d="M17.7071 10.2929C18.0976 10.6834 18.0976 11.3166 17.7071 11.7071L11.7071 17.7071C11.3166 18.0976 10.6834 18.0976 10.2929 17.7071C9.90237 17.3166 9.90237 16.6834 10.2929 16.2929L16.2929 10.2929C16.6834 9.90237 17.3166 9.90237 17.7071 10.2929Z" fill="#001C2F"/>
<path fill-rule="evenodd" clip-rule="evenodd" d="M17.2929 21.7071C16.9024 21.3166 16.9024 20.6834 17.2929 20.2929L21.2929 16.2929C21.6834 15.9024 22.3166 15.9024 22.7071 16.2929C23.0976 16.6834 23.0976 17.3166 22.7071 17.7071L18.7071 21.7071C18.3166 22.0976 17.6834 22.0976 17.2929 21.7071Z" fill="#001C2F"/>
<path fill-rule="evenodd" clip-rule="evenodd" d="M10.2929 12.7071C9.90237 12.3166 9.90237 11.6834 10.2929 11.2929L11 10.5858C11.3905 10.1953 12.0237 10.1953 12.4142 10.5858C12.8047 10.9763 12.8047 11.6095 12.4142 12L11.7071 12.7071C11.3166 13.0976 10.6834 13.0976 10.2929 12.7071Z" fill="#001C2F"/>
<path fill-rule="evenodd" clip-rule="evenodd" d="M8 7C7.44772 7 7 7.44772 7 8V10C7 10.5523 6.55228 11 6 11C5.44772 11 5 10.5523 5 10V8C5 6.34315 6.34315 5 8 5H10C10.5523 5 11 5.44772 11 6C11 6.55228 10.5523 7 10 7H8ZM13 6C13 5.44772 13.4477 5 14 5H18C18.5523 5 19 5.44772 19 6C19 6.55228 18.5523 7 18 7H14C13.4477 7 13 6.55228 13 6ZM21 6C21 5.44772 21.4477 5 22 5H24C25.6569 5 27 6.34315 27 8V10C27 10.5523 26.5523 11 26 11C25.4477 11 25 10.5523 25 10V8C25 7.44772 24.5523 7 24 7H22C21.4477 7 21 6.55228 21 6ZM26 13C26.5523 13 27 13.4477 27 14V18C27 18.5523 26.5523 19 26 19C25.4477 19 25 18.5523 25 18V14C25 13.4477 25.4477 13 26 13ZM6 13C6.55228 13 7 13.4477 7 14V18C7 18.5523 6.55228 19 6 19C5.44772 19 5 18.5523 5 18V14C5 13.4477 5.44772 13 6 13ZM6 21C6.55228 21 7 21.4477 7 22V24C7 24.5523 7.44772 25 8 25H10C10.5523 25 11 25.4477 11 26C11 26.5523 10.5523 27 10 27H8C6.34315 27 5 25.6569 5 24V22C5 21.4477 5.44772 21 6 21ZM26 21C26.5523 21 27 21.4477 27 22V24C27 25.6569 25.6569 27 24 27H22C21.4477 27 21 26.5523 21 26C21 25.4477 21.4477 25 22 25H24C24.5523 25 25 24.5523 25 24V22C25 21.4477 25.4477 21 26 21ZM13 26C13 25.4477 13.4477 25 14 25H18C18.5523 25 19 25.4477 19 26C19 26.5523 18.5523 27 18 27H14C13.4477 27 13 26.5523 13 26Z" fill="#001C2F"/>
</svg>
