<svg xmlns="http://www.w3.org/2000/svg" shape-rendering="geometricPrecision" text-rendering="geometricPrecision" image-rendering="optimizeQuality" fill-rule="evenodd" clip-rule="evenodd" viewBox="0 0 512 512"><rect fill="#8669C0" width="512" height="512" rx="145.305" ry="145.305"/><path fill="#fff" fill-rule="nonzero" d="M231.752 261.761c-.127 9.962-1.34 20.186-3.633 30.661-2.424 11.081-6.061 22.45-10.899 34.094-4.86 11.651-10.541 22.717-17.055 33.205a224.705 224.705 0 01-22.061 29.732 1.73 1.73 0 01-1.308.594l-27.307.006a1.745 1.745 0 01-1.143-3.061c18.267-19.325 31.972-39.569 41.114-60.729 8.912-20.625 13.48-42.128 13.706-64.502H151.23a1.744 1.744 0 01-1.743-1.744v-18.826c0-.962.781-1.744 1.743-1.744h51.837c-1.323-19.304-6.418-38.348-15.278-57.128-9.162-19.422-22.36-38.57-39.588-57.443a1.74 1.74 0 011.288-2.912l25.973-.003c.565 0 1.068.269 1.387.686 15.997 17.132 28.569 35.545 37.713 55.236 8.956 19.29 14.631 39.813 17.021 61.564h48.816c2.39-21.751 8.065-42.273 17.024-61.564 9.167-19.741 21.78-38.197 37.834-55.364a1.729 1.729 0 011.267-.549v-.009h25.974a1.744 1.744 0 011.226 2.983c-17.199 18.849-30.375 37.975-39.527 57.371-8.861 18.782-13.954 37.827-15.278 57.132h51.832c.963 0 1.744.782 1.744 1.744v18.826c0 .963-.781 1.744-1.744 1.744H308.82c.226 22.374 4.795 43.877 13.706 64.502 9.162 21.205 22.906 41.491 41.232 60.853a1.737 1.737 0 01-1.26 2.927v.01h-27.312a1.744 1.744 0 01-1.4-.705 224.764 224.764 0 01-21.967-29.627c-6.513-10.487-12.193-21.554-17.053-33.205-4.839-11.647-8.477-23.016-10.903-34.099-2.292-10.474-3.506-20.697-3.633-30.656h-48.478z"/></svg>